<?xml version="1.0" encoding="UTF-8"?><svg id="Layer_1" xmlns="http://www.w3.org/2000/svg" width="800" height="800" viewBox="0 0 800 800"><rect width="800" height="800" style="fill:none;"/><path d="M400,303.99c-52.84,0-95.83,42.99-95.83,95.83,0,15.21,3.46,29.75,10.28,43.24,1.97,3.89,5.96,6.35,10.32,6.35h63.65v165.65c-16.24,4.96-28.09,20.09-28.09,37.93,0,21.87,17.79,39.66,39.66,39.66s39.66-17.79,39.66-39.66c0-17.85-11.85-32.97-28.09-37.93v-165.65h63.65c4.36,0,8.35-2.45,10.32-6.35,6.82-13.48,10.28-28.03,10.28-43.24,0-52.84-42.99-95.83-95.83-95.83h0ZM416.52,652.99c0,9.11-7.41,16.52-16.52,16.52s-16.52-7.41-16.52-16.52,7.41-16.52,16.52-16.52,16.52,7.41,16.52,16.52ZM467.74,426.27h-135.49c-3.29-8.39-4.95-17.26-4.95-26.45,0-40.08,32.61-72.69,72.69-72.69s72.69,32.61,72.69,72.69c0,9.19-1.66,18.06-4.95,26.45ZM719.01,605.07c-17.85,0-32.97,11.85-37.93,28.09h-122.69v-183.75h40.05v84.43c0,6.39,5.18,11.57,11.57,11.57h60.13c4.96,16.24,20.09,28.09,37.93,28.09,21.87,0,39.66-17.79,39.66-39.66s-17.79-39.66-39.66-39.66c-17.84,0-32.97,11.85-37.93,28.09h-48.56v-72.86h59.32c1.8,0,3.57-.42,5.18-1.22,3.92-1.96,6.4-5.97,6.4-10.35v-76.03c0-4.79-2.95-9.08-7.41-10.8l-40.93-15.76c-5.77-21.87-14.45-42.8-25.86-62.37l17.81-40.11c1.94-4.37.99-9.49-2.39-12.88l-53.76-53.76c-3.38-3.39-8.5-4.33-12.88-2.39l-40.13,17.82c-19.57-11.41-40.49-20.08-62.35-25.85l-15.76-40.95c-1.72-4.47-6.01-7.41-10.8-7.41h-76.03c-4.79,0-9.08,2.95-10.8,7.41l-15.76,40.95c-21.85,5.77-42.78,14.44-62.35,25.85l-40.13-17.82c-4.37-1.94-9.49-.99-12.88,2.39l-53.76,53.76c-3.38,3.38-4.34,8.5-2.39,12.88l17.82,40.12c-11.41,19.57-20.08,40.5-25.85,62.36l-40.94,15.76c-4.47,1.72-7.41,6.01-7.41,10.8v76.03c0,6.39,5.18,11.57,11.57,11.57h59.32v72.86h-48.56c-4.96-16.24-20.09-28.09-37.93-28.09-21.87,0-39.66,17.79-39.66,39.66s17.79,39.66,39.66,39.66c17.85,0,32.97-11.85,37.93-28.09h60.13c6.39,0,11.57-5.18,11.57-11.57v-84.43h40.05v183.75h-122.69c-4.96-16.24-20.09-28.09-37.93-28.09-21.87,0-39.66,17.79-39.66,39.66s17.79,39.66,39.66,39.66c17.85,0,32.97-11.85,37.93-28.09h134.26c6.39,0,11.57-5.18,11.57-11.57v-195.99c2.09-.74,3.95-2.07,5.33-3.88,2.19-2.86,2.92-6.59,1.97-10.07-3.1-11.36-4.67-23.13-4.67-34.97,0-73.12,59.49-132.62,132.62-132.62s132.62,59.49,132.62,132.62c0,11.84-1.57,23.61-4.67,34.97-.95,3.48-.22,7.2,1.97,10.07,1.38,1.8,3.24,3.14,5.32,3.88v195.99c0,6.39,5.18,11.57,11.57,11.57h134.26c4.96,16.24,20.09,28.09,37.93,28.09,21.87,0,39.66-17.79,39.66-39.66s-17.79-39.66-39.66-39.66h0ZM708.07,517.32c9.11,0,16.52,7.41,16.52,16.52s-7.41,16.52-16.52,16.52-16.52-7.41-16.52-16.52,7.41-16.52,16.52-16.52ZM91.93,550.36c-9.11,0-16.52-7.41-16.52-16.52s7.41-16.52,16.52-16.52,16.52,7.41,16.52,16.52-7.41,16.52-16.52,16.52ZM80.99,661.25c-9.11,0-16.52-7.41-16.52-16.52s7.41-16.52,16.52-16.52,16.52,7.41,16.52,16.52-7.41,16.52-16.52,16.52ZM400,244.07c-85.88,0-155.76,69.87-155.76,155.76,0,8.88.75,17.73,2.25,26.45h-115.82v-56.52l39.13-15.06c3.56-1.37,6.22-4.41,7.1-8.12,5.62-23.61,14.94-46.09,27.7-66.81,2-3.25,2.27-7.28.72-10.76l-17.03-38.35,42.53-42.53,38.36,17.04c3.49,1.55,7.51,1.28,10.76-.72,20.73-12.76,43.2-22.08,66.81-27.7,3.71-.88,6.75-3.54,8.12-7.1l15.06-39.14h60.14l15.07,39.14c1.37,3.56,4.41,6.22,8.12,7.1,23.61,5.62,46.09,14.94,66.81,27.7,3.25,2,7.28,2.27,10.76.72l38.36-17.04,42.53,42.53-17.03,38.34c-1.55,3.49-1.28,7.51.72,10.76,12.76,20.72,22.08,43.2,27.7,66.83.88,3.71,3.54,6.75,7.1,8.12l39.12,15.06v56.52h-115.82c1.49-8.71,2.25-17.56,2.25-26.45,0-85.88-69.87-155.76-155.76-155.76h0ZM719.01,661.25c-9.11,0-16.52-7.41-16.52-16.52s7.41-16.52,16.52-16.52,16.52,7.41,16.52,16.52-7.41,16.52-16.52,16.52Z" style="fill:#564bc6;"/></svg>