<?xml version="1.0" encoding="UTF-8"?><svg id="Layer_1" xmlns="http://www.w3.org/2000/svg" width="800" height="800" viewBox="0 0 800 800"><rect width="800" height="800" style="fill:none;"/><g id="_23_App_Development"><path d="M267.47,267.47h-44.18c-24.4,0-44.18-19.78-44.18-44.18v-44.18c0-24.4,19.78-44.18,44.18-44.18h44.18c24.4,0,44.18,19.78,44.18,44.18v44.18c0,24.4-19.78,44.18-44.18,44.18ZM223.29,157.02c-12.2,0-22.09,9.89-22.09,22.09v44.18c0,12.2,9.89,22.09,22.09,22.09h44.18c12.2,0,22.09-9.89,22.09-22.09v-44.18c0-12.2-9.89-22.09-22.09-22.09h-44.18Z" style="fill:#564bc6;"/><path d="M422.09,267.47h-44.18c-24.4,0-44.18-19.78-44.18-44.18v-44.18c0-24.4,19.78-44.18,44.18-44.18h44.18c24.4,0,44.18,19.78,44.18,44.18v44.18c0,24.4-19.78,44.18-44.18,44.18ZM377.91,157.02c-12.2,0-22.09,9.89-22.09,22.09v44.18c0,12.2,9.89,22.09,22.09,22.09h44.18c12.2,0,22.09-9.89,22.09-22.09v-44.18c0-12.2-9.89-22.09-22.09-22.09h-44.18Z" style="fill:#564bc6;"/><path d="M267.47,422.09h-44.18c-24.4,0-44.18-19.78-44.18-44.18v-44.18c0-24.4,19.78-44.18,44.18-44.18h44.18c24.4,0,44.18,19.78,44.18,44.18v44.18c0,24.4-19.78,44.18-44.18,44.18ZM223.29,311.64c-12.2,0-22.09,9.89-22.09,22.09v44.18c0,12.2,9.89,22.09,22.09,22.09h44.18c12.2,0,22.09-9.89,22.09-22.09v-44.18c0-12.2-9.89-22.09-22.09-22.09h-44.18Z" style="fill:#564bc6;"/><path d="M422.09,422.09h-44.18c-24.4,0-44.18-19.78-44.18-44.18v-44.18c0-24.4,19.78-44.18,44.18-44.18h44.18c24.4,0,44.18,19.78,44.18,44.18v44.18c0,24.4-19.78,44.18-44.18,44.18ZM377.91,311.64c-12.2,0-22.09,9.89-22.09,22.09v44.18c0,12.2,9.89,22.09,22.09,22.09h44.18c12.2,0,22.09-9.89,22.09-22.09v-44.18c0-12.2-9.89-22.09-22.09-22.09h-44.18Z" style="fill:#564bc6;"/><path d="M267.47,576.71h-44.18c-24.4,0-44.18-19.78-44.18-44.18v-44.18c0-24.4,19.78-44.18,44.18-44.18h44.18c24.4,0,44.18,19.78,44.18,44.18v44.18c0,24.4-19.78,44.18-44.18,44.18ZM223.29,466.27c-12.2,0-22.09,9.89-22.09,22.09v44.18c0,12.2,9.89,22.09,22.09,22.09h44.18c12.2,0,22.09-9.89,22.09-22.09v-44.18c0-12.2-9.89-22.09-22.09-22.09h-44.18Z" style="fill:#564bc6;"/><path d="M684.37,558.13c-.85-4.68-4.6-8.29-9.31-8.96l-31.73-4.5c-1.5-4.28-3.23-8.48-5.18-12.58l19.26-25.65c2.86-3.81,2.95-9.02.23-12.93-11.26-16.41-25.46-30.61-41.87-41.88-3.91-2.71-9.11-2.62-12.92.23l-25.66,19.25c-4.1-1.95-8.3-3.68-12.59-5.18l-4.46-31.71c-.67-4.71-4.29-8.46-8.97-9.31-6.17-1.11-12.39-1.89-18.64-2.32V90.76c0-24.4-19.78-44.18-44.18-44.18H157.02c-24.4,0-44.18,19.78-44.18,44.18v574.31c0,24.4,19.78,44.18,44.18,44.18h209.84c6.1,0,11.04-4.94,11.04-11.04s-4.94-11.04-11.04-11.04h-209.84c-12.2,0-22.09-9.89-22.09-22.09v-22.09h198.8c6.1,0,11.04-4.94,11.04-11.04s-4.94-11.04-11.04-11.04h-198.8V90.76c0-12.2,9.89-22.09,22.09-22.09h331.33c12.2,0,22.09,9.89,22.09,22.09v331.85c-6.23.42-12.44,1.17-18.59,2.26-4.68.85-8.3,4.6-8.97,9.31l-4.47,31.74c-4.28,1.5-8.48,3.23-12.58,5.18l-25.7-19.2c-3.8-2.85-9-2.95-12.91-.24-16.43,11.26-30.63,25.46-41.89,41.88-2.71,3.91-2.62,9.11.23,12.92l19.25,25.67c-1.94,4.1-3.67,8.3-5.17,12.58l-31.74,4.52c-4.71.67-8.46,4.29-9.31,8.97-3.7,19.58-3.7,39.68,0,59.26.85,4.68,4.6,8.29,9.31,8.96l31.74,4.53c1.5,4.28,3.22,8.48,5.17,12.57l-19.17,25.6c-2.85,3.81-2.95,9.01-.23,12.92,11.34,16.35,25.52,30.54,41.88,41.87,3.91,2.71,9.11,2.62,12.92-.23l25.67-19.25c4.09,1.94,8.28,3.66,12.55,5.16l4.52,31.74c.67,4.71,4.29,8.46,8.97,9.31,19.58,3.71,39.68,3.71,59.26,0,4.68-.85,8.3-4.6,8.97-9.31l4.52-31.74c6.55-2.29,12.9-5.11,18.99-8.44,5.35-2.93,7.31-9.64,4.38-14.99-2.93-5.35-9.64-7.31-14.99-4.38-6.8,3.72-13.98,6.68-21.42,8.84-4.16,1.21-7.23,4.75-7.84,9.05l-4.35,30.49c-11.87,1.61-23.9,1.61-35.76,0l-4.35-30.49c-.61-4.29-3.68-7.83-7.84-9.05-7.43-2.16-14.61-5.13-21.4-8.84-3.8-2.08-8.46-1.75-11.93.85l-24.63,18.47c-9.44-7.35-17.94-15.84-25.28-25.28l18.46-24.62c2.6-3.47,2.93-8.15.84-11.95-3.71-6.79-6.67-13.96-8.84-21.38-1.21-4.16-4.74-7.24-9.03-7.85l-30.5-4.42c-1.61-11.86-1.61-23.89,0-35.75l30.49-4.35c4.29-.62,7.83-3.69,9.03-7.85,2.16-7.44,5.13-14.62,8.84-21.42,2.08-3.8,1.75-8.47-.85-11.94l-18.47-24.63c7.29-9.49,15.78-17.99,25.27-25.28l24.63,18.47c3.47,2.6,8.14,2.93,11.94.85,6.8-3.72,13.99-6.68,21.44-8.84,4.16-1.22,7.22-4.76,7.83-9.05l4.35-30.49c5.91-.77,11.87-1.15,17.84-1.14h0c5.97,0,11.94.41,17.86,1.2l4.35,30.49c.61,4.29,3.67,7.83,7.83,9.05,7.45,2.16,14.64,5.12,21.45,8.84,3.8,2.08,8.47,1.75,11.94-.85l24.62-18.46c9.49,7.29,17.99,15.78,25.28,25.27l-18.46,24.61c-2.61,3.47-2.94,8.15-.85,11.95,3.71,6.8,6.68,13.98,8.84,21.42,1.21,4.17,4.75,7.24,9.05,7.85l30.49,4.35c1.61,11.86,1.61,23.89,0,35.75l-30.49,4.35c-4.29.61-7.83,3.67-9.05,7.83-2.16,7.44-5.13,14.62-8.84,21.43-2.09,3.8-1.76,8.47.84,11.94l18.46,24.62c-8.97,11.53-19.64,21.63-31.65,29.95-4.96,3.55-6.1,10.45-2.54,15.41,3.48,4.85,10.18,6.06,15.13,2.73,16.37-11.33,30.56-25.52,41.89-41.89,2.71-3.91,2.61-9.11-.24-12.91l-19.24-25.65c1.95-4.1,3.67-8.3,5.17-12.58l31.74-4.52c4.71-.67,8.46-4.29,9.31-8.97,3.71-19.58,3.71-39.68,0-59.26Z" style="fill:#564bc6;"/><path d="M521.49,642.98c-30.5,0-55.22-24.72-55.22-55.22s24.72-55.22,55.22-55.22,55.22,24.72,55.22,55.22c-.04,30.48-24.74,55.19-55.22,55.22ZM521.49,554.62c-18.3,0-33.13,14.83-33.13,33.13s14.83,33.13,33.13,33.13,33.13-14.83,33.13-33.13-14.83-33.13-33.13-33.13Z" style="fill:#564bc6;"/><circle cx="322.69" cy="101.8" r="11.04" style="fill:#564bc6;"/></g></svg>