<?xml version="1.0" encoding="UTF-8"?><svg id="Layer_1" xmlns="http://www.w3.org/2000/svg" width="800" height="800" viewBox="0 0 800 800"><rect width="800" height="800" style="fill:none;"/><path d="M750.49,693.92h-295.09c-4.53-22.21-21.89-39.56-44.09-44.09v-91.58h178.52c45.22,0,81.52-35.22,81.52-78.46V116.64c0-43.25-36.57-78.46-81.52-78.46H210.17c-44.94,0-81.52,35.22-81.52,78.46v363.15c0,43.25,36.57,78.46,81.52,78.46h178.52v91.58c-22.21,4.53-39.56,21.89-44.09,44.09H49.51c-6.24,0-11.31,5.06-11.31,11.31s5.06,11.31,11.31,11.31h295.09c6.21,30.6,36.05,50.36,66.65,44.15,22.25-4.52,39.63-21.9,44.15-44.15h295.09c6.24,0,11.31-5.06,11.31-11.31s-5.06-11.31-11.31-11.31ZM210.17,60.79h379.66c31.67-.79,58.01,24.19,58.9,55.85v34.6H151.27v-34.6c.89-31.67,27.24-56.64,58.9-55.85ZM151.27,479.79V173.85h497.46v305.94c-.89,31.67-27.24,56.64-58.9,55.85H210.17c-31.67.79-58.01-24.19-58.9-55.85ZM400,739.15c-18.73,0-33.92-15.19-33.92-33.92s15.19-33.92,33.92-33.92,33.92,15.19,33.92,33.92-15.19,33.92-33.92,33.92ZM591.24,96.91c6.24,0,11.31,5.06,11.31,11.31s-5.06,11.31-11.31,11.31-11.31-5.06-11.31-11.31,5.06-11.31,11.31-11.31ZM546.36,96.91c6.24,0,11.31,5.06,11.31,11.31s-5.06,11.31-11.31,11.31-11.31-5.06-11.31-11.31,5.06-11.31,11.31-11.31ZM501.47,96.91c6.24,0,11.31,5.06,11.31,11.31s-5.06,11.31-11.31,11.31-11.31-5.06-11.31-11.31,5.06-11.31,11.31-11.31ZM337.42,417.77c4.41,4.42,11.57,4.42,15.99,0,0,0,0,0,0,0l109.16-109.22c4.42-4.42,4.42-11.58,0-16s-11.58-4.42-16,0l-109.16,109.22c-4.42,4.41-4.42,11.57,0,15.99,0,0,0,0,0,0ZM414.08,391.32c-6.14-1.13-12.04,2.93-13.17,9.07,0,0,0,.02,0,.03-1.45,7.88-5.25,15.13-10.91,20.8l-40.87,40.93c-15.61,15.42-40.77,15.27-56.19-.34-15.42-15.61-15.27-40.77.34-56.19l40.65-40.65c5.69-5.62,12.97-9.37,20.86-10.74,6.23-.45,10.91-5.86,10.46-12.09-.45-6.23-5.86-10.91-12.09-10.46-.83.06-1.65.21-2.45.45-12.38,2.19-23.8,8.11-32.73,16.96l-40.7,40.65c-24.34,24.32-24.35,63.77-.03,88.1,24.32,24.34,63.77,24.35,88.1.03l40.65-40.65c8.85-8.93,14.77-20.35,16.96-32.73,1.14-6.08-2.81-11.95-8.88-13.17ZM434.65,232.47l-40.65,40.65c-8.85,8.93-14.77,20.35-16.96,32.73-1.42,6.08,2.36,12.16,8.44,13.58,6.08,1.42,12.16-2.36,13.58-8.44.08-.35.15-.71.2-1.07,1.45-7.88,5.25-15.13,10.91-20.8l40.7-40.65c15.49-15.49,40.59-15.49,56.08,0,15.49,15.49,15.49,40.59,0,56.08l-40.65,40.65c-5.73,5.73-13.1,9.54-21.09,10.91-6.15,1.12-10.23,7.02-9.1,13.17,1.12,6.15,7.02,10.23,13.17,9.1h0c12.38-2.19,23.8-8.11,32.73-16.96l40.7-40.65c24.38-24.32,24.43-63.8.11-88.19-24.32-24.38-63.8-24.43-88.19-.11h0Z" style="fill:#fff;"/></svg>